<svg width="22" height="30" viewBox="0 0 22 30" fill="none" xmlns="http://www.w3.org/2000/svg">
<path d="M12.9999 0.893311C12.9999 0.893311 13.9866 4.42664 13.9866 7.29331C13.9866 10.04 12.1866 12.2666 9.43992 12.2666C6.67992 12.2666 4.59992 10.04 4.59992 7.29331L4.63992 6.81331C1.94659 10.0133 0.333252 14.16 0.333252 18.6666C0.333252 24.56 5.10659 29.3333 10.9999 29.3333C16.8933 29.3333 21.6666 24.56 21.6666 18.6666C21.6666 11.48 18.2133 5.06664 12.9999 0.893311ZM10.6133 25.3333C8.23992 25.3333 6.31992 23.4666 6.31992 21.1466C6.31992 18.9866 7.71992 17.4666 10.0666 16.9866C12.4266 16.5066 14.8666 15.3733 16.2266 13.5466C16.7466 15.2666 17.0133 17.08 17.0133 18.9333C17.0133 22.4666 14.1466 25.3333 10.6133 25.3333Z" fill="#FF3214"/>
</svg>
